<svg width="43" height="36" viewBox="0 0 43 36" fill="none" xmlns="http://www.w3.org/2000/svg">
<path d="M12.9251 3.62109C10.0193 3.62109 7.39306 3.93398 5.55212 4.41562C4.63165 4.6568 3.91023 4.94367 3.47267 5.21508C3.03427 5.48578 2.93433 5.68617 2.93433 5.80078C2.93433 5.91539 3.03427 6.11578 3.47267 6.38648C3.91023 6.65789 4.63165 6.94477 5.55212 7.18594C7.39306 7.66406 10.0193 7.98047 12.9251 7.98047C15.831 7.98047 18.4597 7.66406 20.2989 7.18594C21.2228 6.94477 21.945 6.65789 22.3818 6.38648C22.8185 6.11578 22.9193 5.91539 22.9193 5.80078C22.9193 5.68617 22.8185 5.48578 22.3818 5.21508C21.945 4.94367 21.2228 4.6568 20.2989 4.41562C18.4597 3.93398 15.831 3.62109 12.9251 3.62109ZM32.5859 4.95563C32.3759 4.95563 32.1659 4.95562 31.956 4.96687C30.2595 5.04773 28.4034 5.49844 26.6566 6.0518C25.6068 6.38367 24.599 6.75352 23.6919 7.10859C23.5659 7.21406 23.4232 7.3125 23.2804 7.40391C22.8521 7.66406 22.3398 7.89609 21.7435 8.1V9.35859C22.8773 8.83828 24.9433 7.94531 27.1857 7.23516C28.857 6.70781 30.6122 6.29859 32.04 6.23039C33.4677 6.16148 34.4671 6.40617 35.013 7.05234C35.5169 7.65 35.4329 8.04375 34.9542 8.69766C34.4839 9.35156 33.5433 10.118 32.4767 10.9195C31.4185 11.7141 30.2511 12.5508 29.3357 13.4789C28.4202 14.407 27.7232 15.4617 27.8072 16.657C27.9331 18.4008 29.6044 20.0531 31.1581 21.3961C32.7034 22.732 34.2236 23.7094 34.2236 23.7094L35.1474 22.7109C35.1474 22.7109 33.7029 21.7758 32.2415 20.5172C30.7802 19.2516 29.3945 17.6063 29.3189 16.5797V16.5727C29.2601 15.8484 29.7052 15.0891 30.5031 14.2875C31.3009 13.4789 32.4179 12.6703 33.4929 11.8547C34.5679 11.0461 35.6009 10.2516 36.256 9.35156C36.9027 8.45156 37.0706 7.29844 36.2392 6.32039C35.4161 5.34234 34.0472 4.97742 32.5859 4.95563ZM12.9251 5.23828C13.9943 5.23828 15.0196 5.29754 15.7756 5.40303C16.5316 5.50852 16.9564 5.6516 16.9564 5.80078C16.9564 5.94997 16.5316 6.09304 15.7756 6.19853C15.0196 6.30402 13.9943 6.36328 12.9251 6.36328C11.856 6.36328 10.8306 6.30402 10.0746 6.19853C9.31858 6.09304 8.89386 5.94997 8.89386 5.80078C8.89386 5.6516 9.31858 5.50852 10.0746 5.40303C10.8306 5.29754 11.856 5.23828 12.9251 5.23828ZM5.61847 8.52187V9.26719C10.5148 10.2516 15.3607 10.1812 20.2318 9.75234V8.52187C18.2497 8.97891 15.705 9.24609 12.9251 9.24609C10.1368 9.24609 7.60218 8.97891 5.61847 8.52187ZM5.61847 10.568V12.2836C10.9011 12.4875 15.6714 12.0445 20.2318 11.3063V11.018C15.4362 11.4398 10.5736 11.5102 5.61847 10.568ZM20.2318 12.5859C15.6966 13.3102 10.9011 13.7461 5.61847 13.5563V14.8711C10.9935 14.9766 15.9654 14.6953 20.2318 13.7531V12.5859ZM20.2318 15.068C15.8646 15.975 10.9011 16.2352 5.61847 16.1367V16.3617C10.7835 16.9523 15.7638 17.332 20.2318 17.1211V15.068ZM5.61847 17.6344V18.2602C10.0948 19.4555 15.1003 19.5117 20.2318 19.4484V18.3867C15.6882 18.5906 10.7247 18.225 5.61847 17.6344ZM5.61847 19.582V21.818C10.0444 22.057 14.2521 21.5719 18.4009 20.7281C14.0337 20.7562 9.67492 20.6086 5.61847 19.582ZM20.2318 21.6492C15.5538 22.6828 10.7331 23.3578 5.61847 23.0906V24.2156C10.456 24.2297 15.2599 24.1453 20.2318 23.2172V21.6492ZM38.8511 22.9852C38.4564 22.9892 37.9975 23.0821 37.5163 23.2553C37.035 23.4285 36.5468 23.6765 36.0964 23.9766C36.0908 23.9789 36.0852 23.9812 36.0796 23.9836L36.0292 24.0258C35.7578 24.2116 35.5057 24.4131 35.2818 24.6234L22.3314 34.9805L37.1378 26.8313C37.5146 26.6703 37.8883 26.4673 38.238 26.2336C38.9504 25.7583 39.521 25.1844 39.8248 24.6374C40.1286 24.0905 40.1409 23.6152 39.8589 23.3156C39.6549 23.0966 39.3049 22.9818 38.8511 22.9852ZM38.0029 24.0469C38.0057 24.0469 38.0085 24.0469 38.0113 24.0469C38.2373 24.0446 38.4122 24.1008 38.5152 24.2086C38.5853 24.2829 38.6199 24.3796 38.6169 24.4933C38.6139 24.607 38.5734 24.7354 38.4977 24.8712C38.4221 25.0071 38.3127 25.1476 38.176 25.2848C38.0392 25.4221 37.8776 25.5533 37.7005 25.6711C37.3445 25.9086 36.9466 26.0774 36.5941 26.1406C36.2415 26.2039 35.9629 26.1564 35.8193 26.0086C35.748 25.9349 35.7123 25.8386 35.7142 25.7252C35.7162 25.6118 35.7557 25.4835 35.8306 25.3476C35.9055 25.2118 36.0143 25.071 36.1507 24.9335C36.2871 24.796 36.4484 24.6643 36.6255 24.5461C36.8503 24.3958 37.0941 24.2713 37.3347 24.1841C37.5753 24.0969 37.805 24.0497 38.0029 24.0469ZM20.2318 24.5109C15.2011 25.4109 10.3804 25.4953 5.61931 25.4812C5.61931 25.4812 5.65374 25.5445 5.93089 25.6781C6.25927 25.8328 6.83372 26.0016 7.54675 26.1352C8.96945 26.4023 10.9515 26.543 12.9251 26.543C14.8987 26.543 16.8808 26.4023 18.3001 26.1352C19.014 26.0016 19.5935 25.8328 19.921 25.6781C20.2066 25.5375 20.2318 25.4672 20.2318 25.4812V24.5109ZM4.12942 25.6992C3.86907 25.8117 3.64735 25.9172 3.47267 26.0297C3.03427 26.2969 2.93433 26.5008 2.93433 26.6133C2.93433 26.7258 3.03427 26.9297 3.47267 27.1969C3.91023 27.4711 4.63165 27.7594 5.55212 27.9984C7.39306 28.4766 10.0193 28.793 12.9251 28.793C15.831 28.793 18.4597 28.4766 20.2989 27.9984C21.2228 27.7594 21.945 27.4711 22.3818 27.1969C22.8185 26.9297 22.9193 26.7258 22.9193 26.6133C22.9193 26.5008 22.8185 26.2969 22.3818 26.0297C22.2054 25.9172 21.987 25.8047 21.7183 25.6992C21.6175 26.1844 21.1556 26.543 20.6685 26.775C20.1142 27.0422 19.4339 27.225 18.6277 27.3727C17.032 27.668 14.9827 27.8086 12.9251 27.8086C10.8675 27.8086 8.81828 27.668 7.21837 27.3727C6.41968 27.225 5.73353 27.0422 5.18091 26.775C4.69464 26.55 4.23441 26.1844 4.12942 25.6992Z" fill="black"/>
</svg>
