<svg width="44" height="36" viewBox="0 0 44 36" fill="none" xmlns="http://www.w3.org/2000/svg">
<path d="M5.29991 0.609619L4.20936 7.52499C3.73929 10.522 4.12171 13.6101 5.29991 16.3135H9.6853V0.609619H5.29991ZM11.1978 0.609619V12.3141H11.447C11.9798 12.3141 12.4095 11.7977 12.4095 11.17V0.609619H11.1978ZM13.9306 0.609619V11.17C13.9306 12.7799 12.822 14.086 11.447 14.086H11.1978V22.3581H12.4783V16.3135H14.1626C14.1626 16.3135 14.8158 14.7644 15.3314 13.5089C15.7353 12.5774 16.5431 11.98 17.4369 11.98H24.329C25.6181 11.98 26.6665 13.2051 26.6665 14.7239V23.9882H2.23022L3.13858 30.9239H39.1103L40.0126 24.535L38.1994 0.609619H13.9306ZM40.5798 2.97887C40.1587 3.01937 39.8494 3.45474 39.8923 3.94074L40.2619 8.74C40.2962 9.226 40.6658 9.5905 41.0783 9.55C41.4994 9.5095 41.8001 9.06399 41.7658 8.57799L41.4048 3.78887C41.3705 3.33324 41.0439 2.97887 40.6572 2.97887H40.5798ZM33.1205 2.98899C34.9853 2.98899 36.4892 4.76087 36.4892 6.95799C36.4892 9.15512 34.9853 10.927 33.1205 10.927C31.2556 10.927 29.7517 9.15512 29.7517 6.95799C29.7517 4.76087 31.2556 2.98899 33.1205 2.98899ZM33.1205 4.76087C32.0978 4.76087 31.2556 5.75312 31.2556 6.95799C31.2556 8.17299 32.0978 9.15512 33.1205 9.15512C34.1431 9.15512 34.9853 8.17299 34.9853 6.95799C34.9853 5.75312 34.1431 4.76087 33.1205 4.76087ZM33.1205 13.8632C35.4064 13.8632 37.2626 16.0604 37.2626 18.7435C37.2626 21.4367 35.4064 23.6237 33.1205 23.6237C30.8345 23.6237 28.9783 21.4367 28.9783 18.7435C28.9783 16.0604 30.8345 13.8632 33.1205 13.8632ZM33.1205 15.6452C31.6681 15.6452 30.4908 17.0324 30.4908 18.7435C30.4908 20.4546 31.6681 21.8316 33.1205 21.8316C34.5728 21.8316 35.7415 20.4546 35.7415 18.7435C35.7415 17.0324 34.5728 15.6452 33.1205 15.6452ZM7.96741 17.6196V19.4016H9.6939V17.6196H7.96741ZM3.13858 32.9185V35.6016H39.0931V32.9185H3.13858Z" fill="black"/>
</svg>
