<svg width="36" height="36" viewBox="0 0 36 36" fill="none" xmlns="http://www.w3.org/2000/svg">
<path fill-rule="evenodd" clip-rule="evenodd" d="M34.1483 6.948L26.1743 2.96325C25.2375 2.49461 24.2045 2.25042 23.1571 2.25H21.1838C20.9519 2.90924 20.5211 3.48023 19.9508 3.88416C19.3805 4.28808 18.6989 4.50502 18.0001 4.50502C17.3012 4.50502 16.6196 4.28808 16.0493 3.88416C15.4791 3.48023 15.0482 2.90924 14.8163 2.25H12.8431C11.7956 2.25042 10.7626 2.49461 9.82581 2.96325L1.85181 6.948C1.34701 7.20051 0.955558 7.63353 0.755091 8.16116C0.554624 8.68879 0.559789 9.2725 0.769561 9.7965L3.68331 17.0798C3.90176 17.6262 4.3256 18.0653 4.86396 18.3029C5.40233 18.5406 6.01237 18.5578 6.56331 18.351L7.35306 18.054L6.93006 29.079C6.90706 29.6838 7.0063 30.287 7.22185 30.8526C7.43739 31.4181 7.76481 31.9344 8.1845 32.3705C8.6042 32.8066 9.10756 33.1535 9.66445 33.3905C10.2213 33.6276 10.8203 33.7498 11.4256 33.75H24.5746C25.18 33.7498 25.7792 33.6275 26.3362 33.3903C26.8933 33.1532 27.3967 32.806 27.8165 32.3697C28.2362 31.9334 28.5636 31.4168 28.779 30.851C28.9944 30.2852 29.0934 29.6817 29.0701 29.0768L28.6471 18.054L29.4391 18.351C29.99 18.5578 30.6 18.5406 31.1384 18.3029C31.6768 18.0653 32.1006 17.6262 32.3191 17.0798L35.2306 9.7965C35.4403 9.2725 35.4455 8.68879 35.245 8.16116C35.0446 7.63353 34.6531 7.20051 34.1483 6.948ZM12.9691 5.625H12.8431C12.3198 5.62504 11.8037 5.74674 11.3356 5.9805L4.28406 9.504L6.40581 14.805L10.9193 13.113L10.3006 29.2072C10.2948 29.3585 10.3197 29.5094 10.3736 29.6509C10.4276 29.7924 10.5095 29.9215 10.6146 30.0305C10.7196 30.1396 10.8456 30.2263 10.9849 30.2855C11.1243 30.3447 11.2742 30.3751 11.4256 30.375H24.5723C24.7239 30.3751 24.874 30.3446 25.0135 30.2853C25.153 30.2259 25.2791 30.139 25.3841 30.0297C25.4892 29.9205 25.5711 29.7911 25.6249 29.6494C25.6788 29.5076 25.7034 29.3565 25.6973 29.205L25.0763 13.113L29.5898 14.805L31.7116 9.504L24.6646 5.9805C24.1957 5.7464 23.6788 5.62469 23.1548 5.625H23.0288C22.3969 6.33368 21.622 6.90056 20.7553 7.28835C19.8886 7.67615 18.9496 7.87608 18.0001 7.875C17.0502 7.8764 16.1107 7.67662 15.2436 7.28882C14.3765 6.90101 13.6013 6.33396 12.9691 5.625Z" fill="black"/>
</svg>
