<svg width="36" height="36" viewBox="0 0 36 36" fill="none" xmlns="http://www.w3.org/2000/svg">
<path d="M7.5 12V28.5H28.5V12H24V24L18 21L12 24V12H7.5ZM7.5 31.5C6.675 31.5 5.969 31.2065 5.382 30.6195C4.795 30.0325 4.501 29.326 4.5 28.5V9.78751C4.5 9.43751 4.5565 9.10001 4.6695 8.77501C4.7825 8.45001 4.951 8.15001 5.175 7.87501L7.05 5.58751C7.325 5.23751 7.6685 4.96851 8.0805 4.78051C8.4925 4.59251 8.924 4.49901 9.375 4.50001H26.625C27.075 4.50001 27.5065 4.59401 27.9195 4.78201C28.3325 4.97001 28.676 5.23851 28.95 5.58751L30.825 7.87501C31.05 8.15001 31.219 8.45001 31.332 8.77501C31.445 9.10001 31.501 9.43751 31.5 9.78751V28.5C31.5 29.325 31.2065 30.0315 30.6195 30.6195C30.0325 31.2075 29.326 31.501 28.5 31.5H7.5ZM8.1 9.00001H27.9L26.625 7.50001H9.375L8.1 9.00001ZM15 12V19.125L18 17.625L21 19.125V12H15Z" fill="black"/>
</svg>
