<svg width="24" height="24" viewBox="0 0 24 24" fill="none" xmlns="http://www.w3.org/2000/svg">
<path d="M12 21.0001C10.346 21.0001 9 19.6541 9 18.0001V13.2361C7.857 14.2601 5.975 14.2151 4.879 13.1211C4.31707 12.5582 4.00146 11.7954 4.00146 11.0001C4.00146 10.2047 4.31707 9.4419 4.879 8.87906L12 1.75806L19.121 8.87906C19.6829 9.4419 19.9985 10.2047 19.9985 11.0001C19.9985 11.7954 19.6829 12.5582 19.121 13.1211C18.027 14.2161 16.142 14.2611 15 13.2361V18.0001C15 19.6541 13.654 21.0001 12 21.0001ZM11 8.41406V18.0001C11.0115 18.2575 11.1219 18.5007 11.3082 18.6788C11.4945 18.8569 11.7423 18.9563 12 18.9563C12.2577 18.9563 12.5055 18.8569 12.6918 18.6788C12.8781 18.5007 12.9885 18.2575 13 18.0001V8.41406L16.293 11.7071C16.4834 11.8891 16.7366 11.9907 17 11.9907C17.2634 11.9907 17.5166 11.8891 17.707 11.7071C17.7999 11.6143 17.8737 11.5041 17.924 11.3827C17.9743 11.2614 18.0002 11.1314 18.0002 11.0001C18.0002 10.8687 17.9743 10.7387 17.924 10.6174C17.8737 10.496 17.7999 10.3858 17.707 10.2931L12 4.58606L6.293 10.2931C6.20005 10.3858 6.12631 10.496 6.076 10.6174C6.02569 10.7387 5.9998 10.8687 5.9998 11.0001C5.9998 11.1314 6.02569 11.2614 6.076 11.3827C6.12631 11.5041 6.20005 11.6143 6.293 11.7071C6.48336 11.8891 6.73661 11.9907 7 11.9907C7.26339 11.9907 7.51663 11.8891 7.707 11.7071L11 8.41406Z" fill="black"/>
</svg>
